# This file uses centimeters as units for non-parametric coordinates.

mtllib container.mtl
g default
v -15.000001 -5.000000 10.369608
v 15.000001 -5.000000 10.369608
v -14.999986 7.964122 10.369605
v 14.999986 7.964122 10.369605
v -14.999986 7.964122 -10.369605
v 14.999986 7.964122 -10.369605
v -15.000001 -5.000000 -10.369608
v 15.000001 -5.000000 -10.369608
v -14.076977 7.964122 9.557531
v 14.076977 7.964122 9.557531
v 14.076977 7.964122 -9.557531
v -14.076977 7.964122 -9.557531
v -14.076977 -3.666852 9.557531
v 14.076977 -3.666852 9.557531
v 14.076977 -3.666852 -9.557531
v -14.076977 -3.666852 -9.557531
vt 0.662091 0.287267
vt 0.332540 0.287298
vt 0.332522 0.145351
vt 0.662073 0.145320
vt 0.332165 0.714510
vt 0.661716 0.714527
vt 0.661706 0.856475
vt 0.332155 0.856458
vt 0.637916 0.123381
vt 0.356987 0.123363
vt 0.356997 0.000339
vt 0.637926 0.000357
vt 0.356001 0.878105
vt 0.636930 0.878203
vt 0.636873 1.001226
vt 0.355943 1.001129
vt 0.358831 0.692069
vt 0.358831 0.309625
vt 0.639760 0.309625
vt 0.639760 0.692069
vt 0.332767 0.713778
vt 0.332767 0.287935
vt 0.662318 0.287935
vt 0.662318 0.713778
vt 0.828059 0.713778
vt 0.662373 0.145379
vt 0.638069 0.123674
vt 0.852370 0.692078
vt 0.167649 0.288775
vt 0.143338 0.310475
vt 0.331981 0.856425
vt 0.356281 0.878134
vt 0.662520 0.713778
vt 0.662520 0.287935
vt 0.827296 0.287935
vt 0.827296 0.713778
vt 0.167251 0.713768
vt 0.167251 0.287925
vt 0.332027 0.287925
vt 0.332027 0.713768
vt 0.853379 0.691468
vt 0.853379 0.309025
vt 0.996188 0.309025
vt 0.996188 0.691468
vt 0.142050 0.309704
vt 0.142050 0.692147
vt -0.000758 0.692147
vt -0.000758 0.309704
vt 0.637210 0.878241
vt 0.143338 0.692919
vt 0.357140 0.123611
vt 0.167649 0.714618
vt 0.852370 0.309635
vt 0.332822 0.145305
vt 0.828059 0.287935
vt 0.661532 0.856551
vn 0.000000 0.000000 1.000000
vn 0.000000 0.000000 1.000000
vn 0.000000 0.000000 1.000000
vn 0.000000 0.000000 1.000000
vn 0.000000 1.000000 0.000000
vn 0.000000 1.000000 0.000000
vn 0.000000 1.000000 0.000000
vn 0.000000 1.000000 0.000000
vn 0.000000 0.000000 -1.000000
vn 0.000000 0.000000 -1.000000
vn 0.000000 0.000000 -1.000000
vn 0.000000 0.000000 -1.000000
vn 0.000000 -1.000000 0.000000
vn 0.000000 -1.000000 0.000000
vn 0.000000 -1.000000 0.000000
vn 0.000000 -1.000000 0.000000
vn 1.000000 0.000001 0.000000
vn 1.000000 0.000001 0.000000
vn 1.000000 0.000001 0.000000
vn 1.000000 0.000001 0.000000
vn -1.000000 0.000001 0.000000
vn -1.000000 0.000001 0.000000
vn -1.000000 0.000001 0.000000
vn -1.000000 0.000001 0.000000
vn 0.000000 1.000000 -0.000001
vn 0.000000 1.000000 -0.000001
vn 0.000000 1.000000 -0.000001
vn 0.000000 1.000000 -0.000001
vn 0.000000 1.000000 0.000000
vn 0.000000 1.000000 0.000000
vn 0.000000 1.000000 0.000000
vn 0.000000 1.000000 0.000000
vn 0.000000 1.000000 0.000001
vn 0.000000 1.000000 0.000001
vn 0.000000 1.000000 0.000001
vn 0.000000 1.000000 0.000001
vn 0.000000 1.000000 0.000000
vn 0.000000 1.000000 0.000000
vn 0.000000 1.000000 0.000000
vn 0.000000 1.000000 0.000000
vn 0.000000 0.000000 -1.000000
vn 0.000000 0.000000 -1.000000
vn 0.000000 0.000000 -1.000000
vn 0.000000 0.000000 -1.000000
vn -1.000000 0.000000 0.000000
vn -1.000000 0.000000 0.000000
vn -1.000000 0.000000 0.000000
vn -1.000000 0.000000 0.000000
vn 0.000000 0.000000 1.000000
vn 0.000000 0.000000 1.000000
vn 0.000000 0.000000 1.000000
vn 0.000000 0.000000 1.000000
vn 1.000000 0.000000 0.000000
vn 1.000000 0.000000 0.000000
vn 1.000000 0.000000 0.000000
vn 1.000000 0.000000 0.000000
s off
g pCube1
usemtl initialShadingGroup
f 1/33/1 2/34/2 4/35/3 3/36/4
f 13/17/5 14/18/6 15/19/7 16/20/8
f 5/37/9 6/38/10 8/39/11 7/40/12
f 7/21/13 8/22/14 2/23/15 1/24/16
f 2/1/17 8/2/18 6/3/19 4/4/20
f 7/5/21 1/6/22 3/7/23 5/8/24
f 3/25/25 4/55/26 10/53/27 9/28/28
f 4/26/29 6/54/30 11/51/31 10/27/32
f 6/29/33 5/52/34 12/50/35 11/30/36
f 5/31/37 3/56/38 9/49/39 12/32/40
f 9/41/41 10/42/42 14/43/43 13/44/44
f 10/9/45 11/10/46 15/11/47 14/12/48
f 11/45/49 12/46/50 16/47/51 15/48/52
f 12/13/53 9/14/54 13/15/55 16/16/56
