# This file uses centimeters as units for non-parametric coordinates.

mtllib water_surface.mtl
g default
v -14.076977 4.913601 9.557531
v 14.076977 4.913601 9.557531
v 14.076977 4.913601 -9.557531
v -14.076977 4.913601 -9.557531
vt 0.358831 0.692069
vt 0.358831 0.309625
vt 0.639760 0.309625
vt 0.639760 0.692069
vn 0.000000 1.000000 0.000000
vn 0.000000 1.000000 0.000000
vn 0.000000 1.000000 0.000000
vn 0.000000 1.000000 0.000000
s off
g pCube1
usemtl initialShadingGroup
f 1/1/1 2/2/2 3/3/3 4/4/4
